<?xml version="1.0" encoding="utf-8"?>
<!-- Generator: Adobe Illustrator 16.0.0, SVG Export Plug-In . SVG Version: 6.00 Build 0)  -->
<!DOCTYPE svg PUBLIC "-//W3C//DTD SVG 1.1//EN" "http://www.w3.org/Graphics/SVG/1.1/DTD/svg11.dtd">
<svg version="1.1" id="圖層_1" xmlns="http://www.w3.org/2000/svg" xmlns:xlink="http://www.w3.org/1999/xlink" x="0px" y="0px"
	 viewBox="0 0 141.732 170.079" enable-background="new 0 0 141.732 170.079"
	 xml:space="preserve">
<path fill="#00C3A0" d="M14.753,51.381h-1.729c-2.466,0-4.473,2.006-4.474,4.473c0,2.466,2.008,4.472,4.474,4.472h1.729
	c2.467,0,4.474-2.006,4.474-4.472S17.219,51.381,14.753,51.381z"/>
<path fill="#00C3A0" d="M30.117,107.883c-1.772,0-3.215,1.445-3.215,3.219v1.197c0,1.773,1.442,3.217,3.215,3.217
	c1.773,0,3.217-1.441,3.217-3.217v-1.197C33.334,109.329,31.89,107.883,30.117,107.883z"/>
<path id="c21" class="map-city" fill="#36BEA0" stroke="#48D4BB" stroke-width="0.75" stroke-miterlimit="10" d="M14.753,51.381h-1.729
	c-2.466,0-4.473,2.006-4.474,4.473c0,2.466,2.008,4.472,4.474,4.472h1.729c2.467,0,4.474-2.006,4.474-4.472
	S17.219,51.381,14.753,51.381z"/>
<path fill="#00C3A0" d="M27.974,9.675h-2.146c-1.499,0-2.718,1.218-2.718,2.717s1.219,2.718,2.718,2.718h2.146
	c1.499,0,2.717-1.22,2.717-2.718S29.473,9.675,27.974,9.675z"/>
<path fill="#00C3A0" d="M121.136,62.132c-1.187,0-2.146,0.961-2.146,2.146v19.813c0,2.031-1.646,3.678-3.678,3.678h-0.904
	c-2.031,0-3.68,1.647-3.68,3.678v14.681c0,1.559-1.264,2.819-2.818,2.819h-0.695c-1.559,0-2.819,1.263-2.819,2.82v11.875
	c0,3.024-2.456,5.481-5.479,5.481H95.69c-3.024,0-5.479,2.455-5.479,5.479v23.938c0,2.992-2.396,5.424-5.377,5.482
	c-3.072,0.057-5.586-2.553-5.586-5.625v-10.443c0-3.024-2.457-5.479-5.481-5.479h-2.862c-3.026,0-5.482-2.455-5.482-5.481v-1.377
	c0,0-0.012-1.744,0-2.146c0.028-1.017-0.821-1.841-1.839-1.841H62.06c-2.781,0-5.042-2.254-5.042-5.041V113.2
	c0-1.02-0.821-1.842-1.838-1.842h-0.3c-2.199,0-3.98-1.781-3.98-3.979v-1.176v-0.162c0-1.02,0.823-1.84,1.84-1.84h0.27
	c1.017,0,1.84-0.822,1.84-1.839V82.537c0-2.97,2.405-5.371,5.372-5.371h0.176c0.834,0,1.513-0.678,1.513-1.513v-6.09
	c0-2.644,2.131-4.791,4.774-4.818l0,0c2.645-0.023,4.774-2.176,4.774-4.818v-11.6c0-4.129,3.349-7.479,7.479-7.479h0.29
	c4.129,0,7.479-3.348,7.479-7.479v-7.06c0-0.767,0.623-1.387,1.389-1.387h0.396c2.74,0,4.963-2.224,4.963-4.963v-0.42
	c0-2.742,2.225-4.963,4.963-4.963l7.861,0.009c2.741,0,4.965-2.224,4.965-4.963V9.303c0-1.815,1.486-3.284,3.311-3.249
	c1.788,0.032,3.188,1.567,3.188,3.356v0.211c0,1.59,1.287,2.878,2.877,2.878h4.547c2.307,0,4.172,1.868,4.172,4.173l0.033,0.964
	c0,0.533,0.433,0.964,0.963,0.964h0.082c1.524,0,2.767,1.237,2.767,2.766c0,1.526-1.235,2.765-2.767,2.765h-0.082
	c-2.305,0-4.172,1.868-4.172,4.173l0.019,9.831c0,0.533,0.433,0.964,0.965,0.964h0.063c1.217,0,2.203,0.987,2.203,2.204
	c0,1.217-0.986,2.204-2.203,2.204h-0.063c-1.839,0-3.33,1.491-3.33,3.33v13.155c0,1.185-0.962,2.146-2.146,2.146l-0.703,0.01"/>
<path id="c11" class="map-city" fill="#00C3A0" stroke="#48D4BB" stroke-width="0.75" stroke-linecap="round" stroke-linejoin="round" stroke-miterlimit="10" d="
	M54.854,89.323h5.699c0.7,0,1.27-0.566,1.27-1.268v0.002c0-0.701,0.566-1.27,1.269-1.27h4.385c0.847,0,1.531-0.688,1.531-1.533
	v-0.012c0-0.847,0.688-1.531,1.531-1.531c0.848,0,1.533,0.687,1.533,1.531v0.012c0,0.846,0.687,1.533,1.53,1.533l4.765,0.008
	c1.055,0,1.906-0.854,1.906-1.906c0-1.056-0.854-1.908-1.906-1.908c-1.056,0-1.908-0.854-1.908-1.908v-4.195
	c0-1.055-0.854-1.908-1.908-1.908H61.904l0.009,0.678c0,0.836-0.678,1.513-1.513,1.513h-0.177c-2.969,0-5.371,2.407-5.371,5.373
	v6.792h0.002V89.323z"/>
<path id="c13" class="map-city" fill="#00C3A0" stroke="#48D4BB" stroke-width="0.75" stroke-linecap="round" stroke-linejoin="round" stroke-miterlimit="10" d="
	M67.477,86.79c0.847,0,1.53-0.688,1.53-1.531v-0.012c0-0.848,0.688-1.533,1.534-1.533s1.531,0.688,1.531,1.533v0.012
	c0,0.845,0.686,1.531,1.529,1.531h7.403c2.565,0,4.647,2.078,4.647,4.646c0,2.564-2.078,4.646-4.647,4.646h-0.702
	c-1.454,0-2.635,1.18-2.635,2.633v2.564c0,1.452-1.178,2.633-2.631,2.633s-2.633-1.181-2.633-2.633v-3.455
	c0-1.453-1.18-2.632-2.634-2.632h-6.028c-1.454,0-2.632,1.179-2.632,2.632v-0.009c0,1.453-1.181,2.634-2.634,2.634h-3.625V89.325
	h5.697c0.701,0,1.271-0.566,1.271-1.27v0.002c0-0.699,0.565-1.27,1.269-1.27h4.388L67.477,86.79L67.477,86.79z"/>
<path id="c12" class="map-city" fill="#00C3A0" stroke="#48D4BB" stroke-width="0.75" stroke-linecap="round" stroke-linejoin="round" stroke-miterlimit="10" d="
	M63.488,92.883h-0.455c-0.668,0-1.21-0.543-1.21-1.211l0,0c0-0.67,0.542-1.211,1.21-1.211h0.455c0.669,0,1.211,0.541,1.211,1.211
	l0,0C64.699,92.34,64.157,92.883,63.488,92.883z"/>
<path id="c10" class="map-city" fill="#00C3A0" stroke="#48D4BB" stroke-width="0.75" stroke-linecap="round" stroke-linejoin="round" stroke-miterlimit="10" d="
	M76.256,72.041c0-1.416,1.148-2.565,2.564-2.565s2.563-1.149,2.563-2.565s1.149-2.565,2.565-2.565h3.366
	c1.416,0,2.564-1.148,2.564-2.564s1.149-2.566,2.565-2.566h7.26c1.416,0,2.563,1.15,2.563,2.566v24.902
	c0,1.143-0.924,2.063-2.063,2.063l-0.077,0.012c-1.142,0-2.063,0.926-2.063,2.064c0,1.141-0.925,2.063-2.065,2.063l-7.879,0.03
	c-1.471,0-2.66-1.19-2.66-2.66l-0.018-0.102c0-1.473-1.193-2.662-2.662-2.662c-1.472,0-2.66-1.19-2.66-2.66v0.061
	c0-1.055-0.854-1.908-1.908-1.908s-1.907-0.854-1.907-1.907L76.256,72.041z"/>
<path id="c8" class="map-city" fill="#00C3A0" stroke="#48D4BB" stroke-width="0.75" stroke-linecap="round" stroke-linejoin="round" stroke-miterlimit="10" d="
	M107.43,51.478c0,1.416-1.148,2.565-2.564,2.565v0.015c-1.416,0-2.564,1.149-2.564,2.565s-1.146,2.565-2.563,2.565h-7.306
	c-1.416,0-2.563,1.149-2.563,2.565s-1.148,2.565-2.564,2.565h-3.368c-1.416,0-2.563,1.15-2.563,2.566
	c0,1.415-1.148,2.564-2.564,2.564l-0.044-0.003c-1.41,0-2.552-1.144-2.552-2.552v-3.859v-1.21c0-1.289-1.043-2.331-2.332-2.331
	h-2.418l0.014-11.626h6.027c0.904,0,1.638,0.733,1.638,1.636v0.139c0,1.72,1.396,3.116,3.114,3.116h11.898
	c2.697,0,4.889-2.188,4.889-4.888v-0.22c0-1.416,1.147-2.566,2.563-2.566h1.454c0.813,0,1.473,0.66,1.473,1.471l-0.035,0.933
	c0,0.813,0.66,1.471,1.473,1.471v0.026c0.813,0,1.471,0.66,1.471,1.471v1.02h-0.012V51.478z"/>
<path id="c9" class="map-city" fill="#00C3A0" stroke="#48D4BB" stroke-width="0.75" stroke-linecap="round" stroke-linejoin="round" stroke-miterlimit="10" d="
	M76.256,73.519c0,0.799-0.646,1.442-1.444,1.442H61.929v-5.396c0-2.645,2.132-4.793,4.774-4.819l0,0
	c2.646-0.022,4.775-2.175,4.775-4.817v-0.354h2.399c1.289,0,2.33,1.042,2.33,2.331L76.256,73.519z"/>
<path id="c18" class="map-city" fill="#00C3A0" stroke="#48D4BB" stroke-width="0.75" stroke-linecap="round" stroke-linejoin="round" stroke-miterlimit="10" d="
	M110.711,99.297c-1.069,0-1.941,0.867-1.941,1.941l-0.013,0.071c0,1.069-0.867,1.942-1.941,1.942c-1.069,0-1.942,0.867-1.942,1.941
	v0.154c0,0.783-0.637,1.422-1.422,1.422s-1.422-0.639-1.422-1.422v-0.154c0-1.07-0.867-1.941-1.943-1.941
	c-1.069,0-1.94-0.869-1.94-1.942l-0.013-0.071c0-1.07-0.868-1.941-1.942-1.941h-0.177c-1.771,0-3.208-1.438-3.208-3.209
	s1.438-3.209,3.208-3.209h0.066c1.142,0,2.063-0.924,2.063-2.063c0-1.141,0.924-2.064,2.063-2.064l0.078-0.012
	c1.142,0,2.063-0.924,2.063-2.063V56.624h0.022c0-1.416,1.147-2.565,2.563-2.565v-0.015c1.416,0,2.563-1.149,2.563-2.565v-0.11
	c0-0.811,0.658-1.471,1.474-1.471h14.797v10.085c0,1.185-0.961,2.146-2.146,2.146l-0.703,0.01l0.178-0.01
	c-1.186,0-2.146,0.961-2.146,2.146V84.09c0,2.03-1.646,3.678-3.68,3.678h-0.904c-2.031,0-3.68,1.646-3.68,3.68v7.854h0.021v-0.003
	h0.004V99.297z"/>
<path id="c17" class="map-city" fill="#00C3A0" stroke="#48D4BB" stroke-width="0.75" stroke-linecap="round" stroke-linejoin="round" stroke-miterlimit="10" d="
	M90.14,148.243h-3.06c-2.885,0-5.221-2.336-5.221-5.221v-11.814c0-1.086,0.881-1.967,1.967-1.967l0.074-0.012
	c1.086,0,1.967-0.881,1.967-1.967s0.881-1.969,1.965-1.969h0.154c0.793,0,1.438-0.644,1.438-1.438c0-0.797-0.644-1.438-1.438-1.438
	h-0.154c-1.084,0-1.965-0.881-1.965-1.967l0.078-11.007c0-1.847,1.492-3.343,3.342-3.343c1.845,0,3.342-1.494,3.342-3.342
	l0.021-0.127c0-1.846,1.492-3.342,3.342-3.342h0.098h0.178c1.07,0,1.941,0.867,1.941,1.94l0.014,0.072
	c0,1.069,0.867,1.942,1.941,1.942c1.072,0,1.941,0.866,1.941,1.939v0.154c0,0.785,0.639,1.422,1.424,1.422
	c0.783,0,1.422-0.637,1.422-1.422v-0.154c0-1.068,0.869-1.939,1.941-1.939c1.07,0,1.941-0.869,1.941-1.942l0.013-0.072
	c0-1.069,0.753-1.94,1.823-1.94l0,0v6.823c0,1.56-1.264,2.818-2.819,2.818h-0.692c-1.561,0-2.822,1.267-2.822,2.819v11.877
	c0,3.024-2.454,5.479-5.479,5.479h-3.224c-3.024,0-5.479,2.456-5.479,5.481v13.646H90.14V148.243L90.14,148.243z"/>
<path id="c3" class="map-city" fill="#00C3A0" stroke="#48D4BB" stroke-width="0.75" stroke-linecap="round" stroke-linejoin="round" stroke-miterlimit="10" d="
	M130.534,18.6h-0.08c-0.533,0-0.965-0.431-0.965-0.964l-0.031-0.964c0-2.305-1.868-4.173-4.174-4.173h-4.541
	c-1.588,0-2.877-1.289-2.877-2.878V9.41c0-1.79-1.398-3.324-3.188-3.356c-1.821-0.035-3.311,1.434-3.311,3.249v0.319
	c0,2.742-2.226,4.963-4.963,4.963h-0.979v1.604c0,0.84,0.682,1.518,1.521,1.518c1.029,0,1.863,0.834,1.863,1.865
	c0,1.031-0.834,1.865-1.863,1.865v0.012c-0.842,0-1.521,0.681-1.521,1.517v4.109c0,0.84,0.682,1.517,1.521,1.517h1.354
	c0.841,0,1.519,0.681,1.519,1.518l0.014,0.391v5.591c0,0.837,0.676,1.515,1.515,1.515c0.837,0,1.516-0.678,1.516-1.515
	c0-1.905,1.548-3.452,3.451-3.452h0.063c1.906,0,3.451-1.546,3.451-3.452v-0.119c0-1.905,1.547-3.452,3.452-3.452h0.063
	c1.904,0,3.451-1.546,3.451-3.452v-0.119c0-1.905,1.547-3.452,3.451-3.452L130.534,18.6z"/>
<path id="c2" class="map-city" fill="#00C3A0" stroke="#48D4BB" stroke-width="0.75" stroke-linecap="round" stroke-linejoin="round" stroke-miterlimit="10" d="
	M110.368,14.022c0-0.9,0.729-1.63,1.631-1.63h2.533c0.476,0,0.859,0.385,0.859,0.86v2.626c0,0.237,0.191,0.431,0.434,0.431h0.194
	c0.476,0,0.858,0.385,0.858,0.86v0.24c0,0.475,0.387,0.86,0.861,0.86h0.197c0.389,0,0.701,0.313,0.701,0.701v0.941
	c0,0.388-0.313,0.701-0.701,0.701h-0.197c-0.478,0-0.861,0.385-0.861,0.86v0.252c0,0.475-0.385,0.86-0.858,0.86l-0.312-0.029
	c-1.176,0-2.131-0.953-2.131-2.131l0.021-0.223c0-0.298-0.24-0.539-0.538-0.539h-0.157c-0.301,0-0.539-0.241-0.539-0.539v-2.242
	c0-0.475-0.387-0.86-0.861-0.86h-0.252c-0.475,0-0.857-0.385-0.857-0.86L110.368,14.022z"/>
<path id="c1" class="map-city" fill="#00C3A0" stroke="#48D4BB" stroke-width="0.75" stroke-linecap="round" stroke-linejoin="round" stroke-miterlimit="10" d="
	M127.721,13.281l-3.869,3.869c-1.083,1.083-2.838,1.083-3.921,0l0,0c-1.083-1.083-1.083-2.838,0-3.921l0.726-0.724h4.928
	C125.584,12.505,126.735,12.542,127.721,13.281z"/>
<path id="c4" class="map-city" fill="#00C3A0" stroke="#48D4BB" stroke-width="0.75" stroke-linecap="round" stroke-linejoin="round" stroke-miterlimit="10" d="
	M105.47,14.584l-7.009-0.009c-2.741,0-4.963,2.224-4.963,4.963v0.42c0,1.094-0.355,2.108-0.957,2.93l-0.019-0.014
	c1.861,0,3.371,1.508,3.371,3.371v0.116c0,1.862,1.511,3.371,3.37,3.371h0.063c1.86,0,3.371,1.509,3.371,3.371v0.116
	c0,1.862,1.508,3.371,3.371,3.371h0.063c1.861,0,3.369,1.509,3.369,3.371c0,0.817,0.664,1.48,1.479,1.48s1.479-0.663,1.479-1.48
	l0.036-1.248c0-0.611-0.494-1.109-1.106-1.109c-0.838,0-1.517-0.678-1.517-1.515v-5.586l-0.012-0.391c0-0.84-0.682-1.518-1.52-1.518
	h-1.354c-0.838,0-1.518-0.68-1.518-1.517v-4.109c0-0.839,0.682-1.517,1.518-1.517v-0.012c1.03,0,1.864-0.834,1.864-1.865
	c0-1.031-0.834-1.865-1.864-1.865c-0.838,0-1.518-0.681-1.518-1.518L105.47,14.584L105.47,14.584L105.47,14.584z"/>
<path id="c6" class="map-city" fill="#00C3A0" stroke="#48D4BB" stroke-width="0.75" stroke-linecap="round" stroke-linejoin="round" stroke-miterlimit="10" d="
	M92.452,22.921c-0.902,1.216-2.354,2.006-3.986,2.006H88.07c-0.77,0-1.389,0.623-1.389,1.387v7.06l-0.007,0.666v0.07
	c0,1.126,0.915,2.042,2.042,2.042h0.037c1.127,0,2.041,0.915,2.041,2.042v0.069c0,1.126,0.916,2.042,2.041,2.042h0.039
	c1.125,0,2.041,0.915,2.041,2.042l-0.078,1.752c0,0.585,0.477,1.063,1.063,1.063h9.064c0.585,0,1.063-0.475,1.063-1.063
	s0.475-1.063,1.063-1.063h1.429c0.521,0,0.943-0.423,0.943-0.944v-2.128c0-1.862-1.51-3.371-3.37-3.371h-0.063
	c-1.863,0-3.371-1.508-3.371-3.371v-0.116c0-1.862-1.508-3.371-3.371-3.371h-0.063c-1.86,0-3.371-1.509-3.371-3.371v-0.116
	c0-1.862-1.509-3.371-3.368-3.371L92.452,22.921z"/>
<path id="c7" class="map-city" fill="#00C3A0" stroke="#48D4BB" stroke-width="0.75" stroke-linecap="round" stroke-linejoin="round" stroke-miterlimit="10" d="
	M71.452,47.873h6.028c0.902,0,1.638,0.733,1.638,1.636v0.139c0,1.72,1.396,3.116,3.114,3.116H94.13c2.699,0,4.889-2.189,4.889-4.888
	v-0.119c0-1.428-1.156-2.586-2.586-2.586l-0.521-0.011c-0.586,0-1.063-0.475-1.063-1.063l0.077-1.752
	c0-1.126-0.914-2.042-2.041-2.042h-0.037c-1.126,0-2.041-0.915-2.041-2.042v-0.069c0-1.126-0.915-2.042-2.042-2.042h-0.037
	c-1.127,0-2.042-0.915-2.042-2.042v-0.07l0.006-0.666h-0.006c0,4.129-3.349,7.48-7.479,7.48h-0.289
	c-3.943,0-7.174,3.052-7.461,6.921L71.452,47.873z"/>
<path id="c16" class="map-city" fill="#00C3A0" stroke="#48D4BB" stroke-width="0.75" stroke-linecap="round" stroke-linejoin="round" stroke-miterlimit="10" d="
	M68.669,141.932c0.719,0.348,1.527,0.541,2.378,0.541h2.863c3.023,0,5.479,2.457,5.479,5.48v10.444c0,3.072,2.515,5.683,5.586,5.623
	c2.979-0.058,5.377-2.487,5.377-5.481v-10.299h-3.241c-2.886,0-5.223-2.338-5.223-5.222v-11.813c0-1.086,0.88-1.967,1.966-1.967
	l0.075-0.013c1.086,0,1.967-0.881,1.967-1.968c0-1.088,0.881-1.967,1.967-1.967h0.152c0.794,0,1.438-0.645,1.438-1.438
	c0-0.797-0.644-1.438-1.438-1.438h-0.152c-1.086,0-1.967-0.881-1.967-1.967c0-1.412-1.385-1.225-1.385-1.225l-10.563,0.059
	c-1.011,0-1.832,0.816-1.832,1.831v0.306c0,1.011-0.819,1.832-1.834,1.832h-0.195c-1.011,0-1.833,0.819-1.833,1.834v16.634
	L68.669,141.932z"/>
<path id="c15" class="map-city" fill="#00C3A0" stroke="#48D4BB" stroke-width="0.75" stroke-linecap="round" stroke-linejoin="round" stroke-miterlimit="10" d="
	M68.029,141.586c-1.505-0.979-2.494-2.674-2.494-4.596v-1.379c0,0-0.013-1.742,0-2.146c0.028-1.018-0.822-1.84-1.838-1.84h-1.641
	c-2.782,0-5.042-2.256-5.042-5.041v-9.504h10.313c2.175,0,3.938-1.765,3.938-3.938v-3.389c0-2.174,1.765-3.938,3.938-3.938h0.094
	c0.523,0,0.953-0.426,0.953-0.95c0-0.525-0.426-0.953-0.953-0.953h-0.19c1.454,0,2.634-1.181,2.634-2.634v-2.563
	c0-1.453,1.18-2.633,2.633-2.633h0.703c2.564,0,4.646-2.08,4.646-4.648v-1.182c0,1.473,1.191,2.662,2.66,2.662l7.88-0.031h-0.127
	H96.07c-1.771,0-3.209,1.436-3.209,3.207c0,1.772,1.438,3.209,3.209,3.209h0.178h-0.209h-0.101c-1.846,0-3.342,1.494-3.342,3.342
	l-0.021,0.127c0,1.848-1.494,3.342-3.342,3.342c-1.851,0-3.344,1.494-3.344,3.344l-0.078,7.855l0.051,0.531
	c0,0.768-0.623,1.391-1.392,1.391l-10.562,0.064c-1.013,0-1.834,0.817-1.834,1.832v0.305c0,1.01-0.818,1.832-1.832,1.832H70.05
	c-1.012,0-1.834,0.82-1.834,1.834v16.633L68.029,141.586z"/>
<path id="c14" class="map-city" fill="#00C3A0" stroke="#48D4BB" stroke-width="0.75" stroke-linecap="round" stroke-linejoin="round" stroke-miterlimit="10" d="
	M57.02,117.083h10.302c2.175,0,3.938-1.766,3.938-3.938v-3.389c0-2.176,1.775-3.938,3.949-3.938h0.095
	c0.522,0,0.952-0.426,0.952-0.952c0-0.521-0.426-0.953-0.952-0.953c-1.453,0-2.923-1.179-2.923-2.631v-3.455
	c0-1.453-1.178-2.634-2.632-2.634H63.72c-1.454,0-2.633,1.181-2.633,2.634v-0.011c0,1.455-1.179,2.634-2.633,2.634H54.85v1.905
	c0,1.017-0.821,1.838-1.838,1.838h-0.271c-1.018,0-1.839,0.822-1.839,1.841v0.161v1.177c0,2.199,1.783,3.979,3.979,3.979h0.3
	c1.017,0,1.838,0.821,1.838,1.84V117.083L57.02,117.083z"/>
<path id="c19" class="map-city" fill="#00C3A0" stroke="#48D4BB" stroke-width="0.75" stroke-linecap="round" stroke-linejoin="round" stroke-miterlimit="10" d="
	M108.875,49.9c-1.903,0-3.451-1.546-3.451-3.452c0-1.906,1.548-3.452,3.451-3.452l0.408-0.046c1.904,0,3.453-1.546,3.453-3.452
	v-3.402c0-1.905,1.545-3.452,3.449-3.452h0.063c1.904,0,3.451-1.546,3.451-3.452v-0.119c0-1.905,1.547-3.452,3.451-3.452h0.063
	c1.904,0,3.451-1.546,3.451-3.452V22.05c0-1.905,1.547-3.452,3.451-3.452l0.282,0.003c1.525,0,2.767,1.236,2.767,2.766
	c0,1.526-1.234,2.765-2.767,2.765h-0.079c-2.307,0-4.174,1.868-4.174,4.173l0.018,9.831c0,0.533,0.434,0.964,0.966,0.964h0.063
	c1.215,0,2.202,0.987,2.202,2.204c0,1.217-0.987,2.204-2.202,2.204h-0.063c-1.839,0-3.33,1.491-3.33,3.33v3.07h-14.927V49.9H108.875
	z"/>
<path id="c5" class="map-city" fill="#00C3A0" stroke="#48D4BB" stroke-width="0.75" stroke-linecap="round" stroke-linejoin="round" stroke-miterlimit="10" d="
	M86.745,34.095c0,1.138,0.924,2.062,2.063,2.062s2.063-0.924,2.063-2.062v-0.489c0-0.631,0.513-1.144,1.145-1.144l0.074,0.023
	c0.633,0,1.146-0.513,1.146-1.144v-0.408c0-0.631-0.514-1.144-1.146-1.144l-0.074,0.023c-0.632,0-1.145-0.513-1.145-1.144v-0.125
	c0-0.631-0.515-1.144-1.146-1.144h-1.854c-0.631,0-1.146,0.513-1.146,1.144h0.006v4.81L86.745,34.095z"/>
<path id="c22" class="map-city" fill="#36BEA0" stroke="#48D4BB" stroke-width="0.75" stroke-miterlimit="10" d="M25.829,10.05h2.146
	c1.294,0,2.342,1.048,2.342,2.342l0,0c0,1.294-1.048,2.343-2.342,2.343h-2.146c-1.295,0-2.343-1.048-2.343-2.343l0,0
	C23.487,11.099,24.535,10.05,25.829,10.05z"/>
<path id="c20" class="map-city" fill="#00C3A0" stroke="#48D4BB" stroke-width="0.75" stroke-miterlimit="10" d="M27.277,112.299v-1.197
	c0-1.57,1.271-2.844,2.84-2.844l0,0c1.569,0,2.842,1.271,2.842,2.844v1.197c0,1.568-1.271,2.842-2.842,2.842l0,0
	C28.549,115.141,27.277,113.87,27.277,112.299z"/>
<path fill="#36BEA0" d="M113.082,127.579h1.349c0.812,0,1.469,0.656,1.469,1.469l0,0c0,0.813-0.657,1.47-1.469,1.47h-1.349
	c-0.812,0-1.467-0.656-1.467-1.47l0,0C111.616,128.235,112.272,127.579,113.082,127.579z"/>
<path fill="#36BEA0" d="M121.191,150.891v1.816c0,1.098-0.889,1.983-1.981,1.983l0,0c-1.096,0-1.982-0.889-1.982-1.983v-1.816
	c0-1.096,0.891-1.982,1.982-1.982l0,0C120.305,148.909,121.191,149.795,121.191,150.891z"/>
</svg>
